<svg width="20" height="20" viewBox="0 0 20 20" fill="none" xmlns="http://www.w3.org/2000/svg">
<path d="M17 5.18326C14.41 4.91926 11.8044 4.78326 9.20667 4.78326C7.66667 4.78326 6.12667 4.86326 4.58667 5.02326L3 5.18326" stroke="#F31260" stroke-width="1.35" stroke-linecap="round" stroke-linejoin="round"/>
<path d="M7.27734 4.37593L7.44846 3.32796C7.5729 2.56798 7.66624 2 8.98068 2H11.0184C12.3329 2 12.434 2.59998 12.5507 3.33595L12.7217 4.37593" stroke="#F31260" stroke-width="1.35" stroke-linecap="round" stroke-linejoin="round"/>
<path d="M15.3284 7.71234L14.8229 15.7681C14.7373 17.024 14.6673 18 12.4973 18H7.50396C5.33396 18 5.26396 17.024 5.1784 15.7681L4.67285 7.71234" stroke="#F31260" stroke-width="1.35" stroke-linecap="round" stroke-linejoin="round"/>
<path d="M8.69922 13.5997H11.2892" stroke="#F31260" stroke-width="1.35" stroke-linecap="round" stroke-linejoin="round"/>
<path d="M8.05566 10.3997H11.9446" stroke="#F31260" stroke-width="1.35" stroke-linecap="round" stroke-linejoin="round"/>
</svg>
