<svg width="20" height="20" viewBox="0 0 20 20" fill="none" xmlns="http://www.w3.org/2000/svg">
<path d="M12.93 10.0069C12.93 11.6818 11.6219 13.0352 10.0031 13.0352C8.3843 13.0352 7.07617 11.6818 7.07617 10.0069C7.07617 8.33194 8.3843 6.97845 10.0031 6.97845C11.6219 6.97845 12.93 8.33194 12.93 10.0069Z" stroke="#A1A1AA" stroke-width="1.35" stroke-linecap="round" stroke-linejoin="round"/>
<path d="M9.99998 17C12.8861 17 15.5758 15.2405 17.4481 12.1952C18.184 11.0024 18.184 8.9976 17.4481 7.80485C15.5758 4.75952 12.8861 3 9.99998 3C7.11394 3 4.42411 4.75952 2.55186 7.80485C1.81605 8.9976 1.81605 11.0024 2.55186 12.1952C4.42411 15.2405 7.11394 17 9.99998 17Z" stroke="#A1A1AA" stroke-width="1.35" stroke-linecap="round" stroke-linejoin="round"/>
</svg>
