<svg xmlns="http://www.w3.org/2000/svg" width="22" height="39" viewBox="0 0 22 39" fill="none">
    <path fill-rule="evenodd" clip-rule="evenodd" d="M20.1687 3.42575C20.1687 2.04275 19.3544 0.919922 18.3926 0.919922H2.7761C1.77708 0.919922 1 2.04275 1 3.42575V23.4531C1 24.8369 1.77708 25.9589 2.7761 25.9589H18.3926C19.3544 25.9589 20.1687 24.8369 20.1687 23.4531V3.42575Z" stroke="black" stroke-width="1.8" stroke-miterlimit="1.5" stroke-linecap="round" stroke-linejoin="round"/>
    <path d="M7.45965 10.3184C8.9993 10.3184 10.2465 9.0577 10.2465 7.50142C10.2465 5.94617 8.9993 4.68445 7.45965 4.68445C5.921 4.68445 4.67383 5.94617 4.67383 7.50142C4.67383 9.0577 5.921 10.3184 7.45965 10.3184Z" stroke="#A36A2F" stroke-width="1.8" stroke-miterlimit="1.5" stroke-linecap="square" stroke-linejoin="round"/>
    <path d="M10.4863 26.7106V37.6429" stroke="black" stroke-width="1.8" stroke-miterlimit="1.5" stroke-linecap="round" stroke-linejoin="round"/>
    <path d="M14.4531 37.6412H6.57871" stroke="black" stroke-width="1.8" stroke-miterlimit="1.5" stroke-linecap="round" stroke-linejoin="round"/>
</svg>