<svg width="366" height="512" viewBox="0 0 366 512" fill="none" xmlns="http://www.w3.org/2000/svg">
<path fill-rule="evenodd" clip-rule="evenodd" d="M335.343 230.446C340.281 213.502 343.068 197.318 343.068 182.502C343.068 94.185 271.391 22.4956 183.125 22.4956C94.732 22.4956 23.0562 94.185 23.0562 182.502C23.0562 227.736 49.6497 285.685 81.0557 339.088C119.933 405.066 166.662 464.041 183.125 484.126C189.583 476.173 206.426 454.531 214.404 443.969C220.989 435.345 234.539 444.146 227.448 452.973C219.849 462.37 189.077 501.652 189.077 501.652C187.684 503.425 185.404 504.451 183.125 504.451C180.719 504.451 178.566 503.425 177.046 501.652C177.046 501.652 116.134 429.811 67.5053 347.117C34.453 291.055 7.22656 229.978 7.22656 182.502C7.22656 85.4597 85.994 6.66602 183.125 6.66602C280.129 6.66602 358.898 85.4597 358.898 182.502C358.898 201.586 354.591 222.861 347.12 245.124C308.495 354.475 182.112 337.999 182.112 337.999C178.059 337.48 175.147 334.124 175.147 330.16V251.177H160.33C155.898 251.177 152.352 247.631 152.352 243.262C152.352 238.893 155.898 235.347 160.33 235.347H183.125C187.43 235.347 190.976 238.893 190.976 243.262C190.976 243.351 190.976 243.439 190.976 243.515C190.976 243.604 190.976 243.692 190.976 243.768V318.003V322.891C216.81 324.36 308.369 320.903 335.343 230.446C335.469 229.737 334.963 231.041 335.343 230.446Z" fill="black"/>
<path d="M335.343 230.446C340.281 213.502 343.068 197.318 343.068 182.502C343.068 94.185 271.391 22.4956 183.125 22.4956C94.732 22.4956 23.0562 94.185 23.0562 182.502C23.0562 227.736 49.6497 285.685 81.0557 339.088C119.933 405.066 166.662 464.041 183.125 484.126C189.583 476.173 206.426 454.531 214.404 443.969C220.989 435.345 234.539 444.146 227.448 452.973C219.849 462.37 189.077 501.652 189.077 501.652C187.684 503.425 185.404 504.451 183.125 504.451C180.719 504.451 178.566 503.425 177.046 501.652C177.046 501.652 116.134 429.811 67.5053 347.117C34.453 291.055 7.22656 229.978 7.22656 182.502C7.22656 85.4597 85.994 6.66602 183.125 6.66602C280.129 6.66602 358.898 85.4597 358.898 182.502C358.898 201.586 354.591 222.861 347.12 245.124C308.495 354.475 182.112 337.999 182.112 337.999C178.059 337.48 175.147 334.124 175.147 330.16V251.177H160.33C155.898 251.177 152.352 247.631 152.352 243.262C152.352 238.893 155.898 235.347 160.33 235.347H183.125C187.43 235.347 190.976 238.893 190.976 243.262C190.976 243.351 190.976 243.439 190.976 243.515C190.976 243.604 190.976 243.692 190.976 243.768V318.003V322.891C216.81 324.36 308.369 320.903 335.343 230.446ZM335.343 230.446C334.963 231.041 335.469 229.737 335.343 230.446Z" stroke="black" stroke-width="13.3349" stroke-miterlimit="2" stroke-linejoin="round"/>
<path d="M183.072 203.549C197.34 203.549 208.906 191.983 208.906 177.715C208.906 163.448 197.34 151.881 183.072 151.881C168.805 151.881 157.238 163.448 157.238 177.715C157.238 191.983 168.805 203.549 183.072 203.549Z" stroke="#A36A2F" stroke-width="29.1617" stroke-miterlimit="1.5" stroke-linecap="square" stroke-linejoin="round"/>
<path d="M236.692 451.301C250.959 451.301 262.526 439.735 262.526 425.468C262.526 411.2 250.959 399.634 236.692 399.634C222.424 399.634 210.857 411.2 210.857 425.468C210.857 439.735 222.424 451.301 236.692 451.301Z" stroke="#A36A2F" stroke-width="29.1617" stroke-miterlimit="1.5" stroke-linecap="square" stroke-linejoin="round"/>
</svg>
